<svg width="33" height="33" viewBox="0 0 33 33" fill="none" xmlns="http://www.w3.org/2000/svg">
<path d="M8.08214 10.7525C6.3334 12.5015 5.34878 14.8721 5.34377 17.3454C5.33876 19.8187 6.31378 22.1933 8.05543 23.9494C10.0189 19.4079 13.5185 15.6145 17.8863 13.3571C14.1163 16.5471 11.5715 20.9474 10.6868 25.806C14.1596 27.4489 18.4339 26.8479 21.3057 23.9761C25.2995 19.9823 26.4215 9.09621 26.6619 6.10421C26.6703 6.00914 26.6577 5.91339 26.6251 5.8237C26.5925 5.73401 26.5406 5.65256 26.4731 5.58508C26.4057 5.51759 26.3242 5.46572 26.2345 5.4331C26.1448 5.40048 26.0491 5.38792 25.954 5.39628C22.962 5.63671 12.0759 6.75871 8.08214 10.7525Z" fill="url(#paint0_linear_48_113)"/>
<defs>
<linearGradient id="paint0_linear_48_113" x1="16.0041" y1="5.39377" x2="16.0041" y2="26.7068" gradientUnits="userSpaceOnUse">
<stop stop-color="#FFBB00"/>
<stop offset="1" stop-color="#F2A60C"/>
</linearGradient>
</defs>
</svg>
