<svg width="33" height="33" viewBox="0 0 33 33" fill="none" xmlns="http://www.w3.org/2000/svg">
<path d="M25.9937 13.3571C25.8619 13.5518 25.7839 13.7779 25.7675 14.0124C25.7511 14.247 25.7969 14.4817 25.9002 14.6928C26.2315 15.4662 26.4652 16.2783 26.5948 17.1105C26.9386 19.2612 26.617 21.4656 25.6731 23.4284C25.5585 23.6437 25.3871 23.8235 25.1775 23.9483C24.968 24.0731 24.7282 24.1381 24.4843 24.1363H7.58755C7.34228 24.1369 7.1016 24.0698 6.8919 23.9426C6.68221 23.8154 6.51159 23.6328 6.39877 23.4151C5.54375 21.6806 5.17544 19.7465 5.33311 17.8192C5.49078 15.8918 6.16852 14.0434 7.29407 12.4709C8.41963 10.8984 9.9508 9.66082 11.7244 8.89009C13.4979 8.11936 15.4474 7.84436 17.365 8.09442C18.3352 8.20846 19.2842 8.46033 20.1833 8.84242C20.3945 8.94576 20.6292 8.99154 20.8638 8.97512C21.0983 8.95871 21.3243 8.88068 21.5191 8.74892C21.7219 8.61527 21.8845 8.42883 21.9893 8.20966C22.0941 7.99048 22.1371 7.74689 22.1137 7.50508C22.0904 7.26327 22.0015 7.03241 21.8567 6.83735C21.7119 6.64229 21.5167 6.49041 21.292 6.39806C18.7116 5.29163 15.8483 5.0264 13.1086 5.64004C10.3689 6.25368 7.89229 7.71499 6.03045 9.81639C4.16862 11.9178 3.01627 14.5524 2.73711 17.3461C2.45794 20.1397 3.06615 22.9503 4.47534 25.3786C4.70844 25.7823 5.04314 26.118 5.44618 26.3524C5.84922 26.5867 6.30657 26.7115 6.77277 26.7143H25.2724C25.7431 26.7161 26.206 26.5936 26.6141 26.359C27.0223 26.1245 27.3612 25.7862 27.5966 25.3786C28.6282 23.5906 29.2315 21.5879 29.3589 19.5276C29.4864 17.4673 29.1346 15.4055 28.3312 13.5041C28.2294 13.2874 28.0713 13.102 27.8733 12.9673C27.6754 12.8327 27.4449 12.7537 27.2059 12.7387C26.967 12.7237 26.7284 12.7732 26.5152 12.882C26.3019 12.9908 26.1218 13.1549 25.9937 13.3571Z" fill="url(#paint0_linear_48_149)"/>
<path d="M14.1452 16.8166C13.6439 17.3179 13.3623 17.9977 13.3623 18.7066C13.3623 19.0577 13.4314 19.4052 13.5658 19.7295C13.7001 20.0538 13.897 20.3485 14.1452 20.5967C14.3934 20.8449 14.688 21.0418 15.0123 21.1761C15.3366 21.3104 15.6842 21.3796 16.0352 21.3796C16.7441 21.3796 17.424 21.098 17.9253 20.5967L25.4854 9.25647L14.1452 16.8166Z" fill="url(#paint1_linear_48_149)"/>
<defs>
<linearGradient id="paint0_linear_48_149" x1="16.0277" y1="5.31708" x2="16.0277" y2="26.7143" gradientUnits="userSpaceOnUse">
<stop stop-color="#FFBB00"/>
<stop offset="1" stop-color="#F2A60C"/>
</linearGradient>
<linearGradient id="paint1_linear_48_149" x1="19.4239" y1="9.25647" x2="19.4239" y2="21.3796" gradientUnits="userSpaceOnUse">
<stop stop-color="#FFBB00"/>
<stop offset="1" stop-color="#F2A60C"/>
</linearGradient>
</defs>
</svg>
