<svg width="18" height="14" viewBox="0 0 18 14" fill="none" xmlns="http://www.w3.org/2000/svg">
<path d="M15.667 0.332993H2.33299C1.41699 0.332993 0.674992 1.08299 0.674992 1.99999L0.666992 12C0.666992 12.917 1.41699 13.667 2.33299 13.667H15.667C16.583 13.667 17.333 12.917 17.333 12V1.99999C17.333 1.08299 16.583 0.332993 15.667 0.332993ZM15.333 3.87499L9.44199 7.55899C9.30909 7.64083 9.15607 7.68416 8.99999 7.68416C8.84391 7.68416 8.6909 7.64083 8.55799 7.55899L2.66699 3.87499C2.5846 3.8275 2.51261 3.76389 2.45534 3.68797C2.39807 3.61204 2.35668 3.52536 2.33364 3.43309C2.3106 3.34082 2.30639 3.24485 2.32126 3.15091C2.33613 3.05698 2.36977 2.967 2.42017 2.88636C2.47058 2.80571 2.53671 2.73604 2.61464 2.68152C2.69256 2.62699 2.78066 2.58872 2.8737 2.56899C2.96673 2.54927 3.06279 2.54849 3.15613 2.5667C3.24948 2.58491 3.3382 2.62174 3.41699 2.67499L8.99999 6.16699L14.583 2.67499C14.6618 2.62174 14.7505 2.58491 14.8439 2.5667C14.9372 2.54849 15.0332 2.54927 15.1263 2.56899C15.2193 2.58872 15.3074 2.62699 15.3853 2.68152C15.4633 2.73604 15.5294 2.80571 15.5798 2.88636C15.6302 2.967 15.6639 3.05698 15.6787 3.15091C15.6936 3.24485 15.6894 3.34082 15.6663 3.43309C15.6433 3.52536 15.6019 3.61204 15.5446 3.68797C15.4874 3.76389 15.4154 3.8275 15.333 3.87499Z" fill="url(#paint0_linear_53_312)"/>
<defs>
<linearGradient id="paint0_linear_53_312" x1="8.99999" y1="0.332993" x2="8.99999" y2="13.667" gradientUnits="userSpaceOnUse">
<stop stop-color="#FFBB00"/>
<stop offset="1" stop-color="#F2A60C"/>
</linearGradient>
</defs>
</svg>
