<svg width="14" height="18" viewBox="0 0 14 18" fill="none" xmlns="http://www.w3.org/2000/svg">
<path d="M7.00001 0.667007C3.50001 0.667007 0.333008 3.35001 0.333008 7.50001C0.333008 10.15 2.37501 13.267 6.45001 16.858C6.604 16.9909 6.80061 17.064 7.00401 17.064C7.2074 17.064 7.40402 16.9909 7.55801 16.858C11.625 13.267 13.667 10.15 13.667 7.50001C13.667 3.35001 10.5 0.667007 7.00001 0.667007ZM7.00001 9.00001C6.08301 9.00001 5.33301 8.25001 5.33301 7.33301C5.33301 6.41601 6.08301 5.66601 7.00001 5.66601C7.91701 5.66601 8.66701 6.41601 8.66701 7.33301C8.66701 8.25001 7.91701 9.00001 7.00001 9.00001Z" fill="url(#paint0_linear_53_308)"/>
<defs>
<linearGradient id="paint0_linear_53_308" x1="7.00001" y1="0.667007" x2="7.00001" y2="17.064" gradientUnits="userSpaceOnUse">
<stop stop-color="#FFBB00"/>
<stop offset="1" stop-color="#F2A60C"/>
</linearGradient>
</defs>
</svg>
